<svg width="24" height="25" viewBox="0 0 24 25" fill="none" xmlns="http://www.w3.org/2000/svg">
<g clip-path="url(#clip0_119_110)">
<path d="M18 7.51514H21C21.2652 7.51514 21.5196 7.62049 21.7071 7.80803C21.8946 7.99557 22 8.24992 22 8.51514V20.5151C22 20.7804 21.8946 21.0347 21.7071 21.2222C21.5196 21.4098 21.2652 21.5151 21 21.5151H3C2.73478 21.5151 2.48043 21.4098 2.29289 21.2222C2.10536 21.0347 2 20.7804 2 20.5151V4.51514C2 4.24992 2.10536 3.99557 2.29289 3.80803C2.48043 3.62049 2.73478 3.51514 3 3.51514H18V7.51514ZM4 9.51514V19.5151H20V9.51514H4ZM4 5.51514V7.51514H16V5.51514H4ZM15 13.5151H18V15.5151H15V13.5151Z" fill="#8F8F8F"/>
</g>
<defs>
<clipPath id="clip0_119_110">
<rect width="24" height="24" fill="white" transform="translate(0 0.515137)"/>
</clipPath>
</defs>
</svg>
