<svg width="24" height="25" viewBox="0 0 24 25" fill="none" xmlns="http://www.w3.org/2000/svg">
<g clip-path="url(#clip0_111_827)">
<path d="M12 22.5151C6.477 22.5151 2 18.0381 2 12.5151C2 6.99214 6.477 2.51514 12 2.51514C17.523 2.51514 22 6.99214 22 12.5151C22 18.0381 17.523 22.5151 12 22.5151ZM12 20.5151C14.1217 20.5151 16.1566 19.6723 17.6569 18.172C19.1571 16.6717 20 14.6369 20 12.5151C20 10.3934 19.1571 8.35857 17.6569 6.85828C16.1566 5.35799 14.1217 4.51514 12 4.51514C9.87827 4.51514 7.84344 5.35799 6.34315 6.85828C4.84285 8.35857 4 10.3934 4 12.5151C4 14.6369 4.84285 16.6717 6.34315 18.172C7.84344 19.6723 9.87827 20.5151 12 20.5151ZM12 7.56514L16.95 12.5151L12 17.4651L7.05 12.5151L12 7.56514ZM12 10.3941L9.879 12.5151L12 14.6361L14.121 12.5151L12 10.3941Z" fill="#8F8F8F"/>
</g>
<defs>
<clipPath id="clip0_111_827">
<rect width="24" height="24" fill="white" transform="translate(0 0.515137)"/>
</clipPath>
</defs>
</svg>
