<svg width="24" height="25" viewBox="0 0 24 25" fill="none" xmlns="http://www.w3.org/2000/svg">
<path d="M12 22.5151C6.477 22.5151 2 18.0381 2 12.5151C2 8.03714 4.943 4.24714 9 2.97314V5.09714C7.28092 5.79518 5.8578 7.06884 4.97406 8.70025C4.09032 10.3317 3.80088 12.2194 4.15525 14.0407C4.50963 15.8619 5.48579 17.5034 6.91676 18.6845C8.34774 19.8655 10.1446 20.5126 12 20.5151C13.5938 20.5151 15.1513 20.0392 16.4728 19.1484C17.7944 18.2576 18.82 16.9925 19.418 15.5151H21.542C20.268 19.5721 16.478 22.5151 12 22.5151ZM21.95 13.5151H11V2.56514C11.329 2.53214 11.663 2.51514 12 2.51514C17.523 2.51514 22 6.99214 22 12.5151C22 12.8521 21.983 13.1861 21.95 13.5151ZM13 4.57714V11.5151H19.938C19.7154 9.75274 18.9129 8.11447 17.6568 6.85837C16.4007 5.60227 14.7624 4.79972 13 4.57714Z" fill="#8F8F8F"/>
</svg>
