<svg width="40" height="40" viewBox="0 0 40 40" fill="none" xmlns="http://www.w3.org/2000/svg">
<circle cx="20" cy="20" r="19" stroke="white" stroke-width="2"/>
<g clip-path="url(#clip0_30_1284)">
<path fill-rule="evenodd" clip-rule="evenodd" d="M22.1454 16.5493C22.8795 16.1832 23.8137 15.6443 24.749 14.906C24.9462 15.3155 24.9678 15.6729 24.8662 15.9614C24.7942 16.1648 24.6585 16.3417 24.4801 16.4824C24.2869 16.6345 24.0456 16.7452 23.7789 16.805C23.2728 16.919 22.6819 16.8525 22.1454 16.5493ZM22.2727 20.3002L23.2445 20.8615C21.2602 21.9737 20.7207 24.0388 20.0799 26.0502C19.4392 24.0388 18.8997 21.9737 16.9155 20.8615L17.8873 20.3002C17.9813 20.2646 18.0617 20.2003 18.1169 20.1163C18.172 20.0323 18.1992 19.933 18.1945 19.8326C18.1055 17.9488 18.6141 17.1158 19.3002 16.5927C19.5463 16.4054 19.8149 16.3113 20.0799 16.3113C20.345 16.3113 20.6136 16.4054 20.8598 16.5927C21.5459 17.1158 22.0545 17.9488 21.9655 19.8326C21.9607 19.933 21.9879 20.0323 22.0431 20.1163C22.0983 20.2003 22.1786 20.2646 22.2727 20.3002ZM20.0799 8C21.2033 8.03016 22.3295 8.24824 23.3068 8.67248C23.9836 8.96664 24.6151 9.3552 25.187 9.81984C25.4452 10.0296 25.6579 10.2322 25.8921 10.4655C26.5239 10.4874 27.4471 9.78552 27.8758 9.1288C27.1381 11.5472 23.7719 14.4031 21.4414 15.4959C21.4404 15.4955 21.4398 15.495 21.4391 15.4945C21.0208 15.1751 20.5504 15.0154 20.0799 15.0154C19.6095 15.0154 19.1391 15.1751 18.7209 15.4945C18.7202 15.4949 18.7195 15.4956 18.7186 15.4959C16.388 14.4031 13.0219 11.5472 12.2842 9.1288C12.7127 9.78552 13.636 10.4874 14.2678 10.4655C14.5021 10.2323 14.7147 10.0296 14.9729 9.81984C15.5447 9.3552 16.1763 8.96664 16.8531 8.67248C17.8305 8.24824 18.9567 8.03016 20.0799 8ZM18.0145 16.5493C17.2804 16.1832 16.3462 15.6443 15.411 14.906C15.2138 15.3155 15.1922 15.6729 15.2937 15.9614C15.3658 16.1648 15.5015 16.3417 15.6798 16.4824C15.8731 16.6345 16.1143 16.7452 16.3811 16.805C16.8871 16.919 17.4779 16.8525 18.0145 16.5493Z" fill="white"/>
<path fill-rule="evenodd" clip-rule="evenodd" d="M25.7734 14.0012C26.2882 13.4816 26.7419 12.9065 27.1067 12.3933L27.292 12.742C27.8885 13.9354 28.1984 15.124 28.1984 16.4616L28.1971 18.5841L28.2083 19.6844C28.2515 22.3857 28.836 25.1188 30.16 27.6199L27.3898 25.3861L25.4298 28.5668L23.3706 26.6284L20.08 31.9683L16.7894 26.6284L14.7303 28.5669L12.7702 25.3862L10 27.62C11.324 25.1188 11.9085 22.3858 11.9518 19.6845L11.963 18.5842L11.9617 16.4616C11.9617 15.124 12.2715 13.9354 12.8682 12.7421L13.0534 12.3934C13.4182 12.9066 13.8718 13.4816 14.3867 14.0013L14.2259 14.3353C13.9135 14.984 13.8101 15.7094 14.0534 16.3992C14.2103 16.8436 14.4966 17.2246 14.8658 17.5155C15.2242 17.798 15.6483 17.9884 16.0924 18.0884C16.3817 18.1535 16.6764 18.1803 16.9692 18.1712C16.9009 18.5584 16.871 18.9601 16.8691 19.3694L14.256 20.8787L16.2725 22.009C16.4337 22.0994 16.5871 22.2029 16.7312 22.3185C18.3937 23.8112 19.3932 28.2269 20.0801 30.3838C20.767 28.2269 21.7665 23.8112 23.429 22.3185C23.5731 22.2029 23.7266 22.0993 23.8878 22.009L25.9042 20.8787L23.291 19.3694C23.2891 18.9601 23.2593 18.5584 23.191 18.1712C23.4838 18.1803 23.7785 18.1535 24.0678 18.0884C24.5118 17.9884 24.9361 17.798 25.2944 17.5155C25.6634 17.2246 25.9498 16.8436 26.1066 16.3992C26.3501 15.7094 26.2466 14.9841 25.9342 14.3353L25.7734 14.0013L25.7734 14.0012Z" fill="white"/>
</g>
<defs>
<clipPath id="clip0_30_1284">
<rect width="20.16" height="24" fill="white" transform="translate(10 8)"/>
</clipPath>
</defs>
</svg>
