<svg width="24" height="25" viewBox="0 0 24 25" fill="none" xmlns="http://www.w3.org/2000/svg">
<path d="M6 12.6489C6 12.3535 6.0582 12.0609 6.17127 11.7879C6.28434 11.5149 6.45008 11.2669 6.65901 11.0579C6.86794 10.849 7.11598 10.6833 7.38896 10.5702C7.66194 10.4571 7.95453 10.3989 8.25 10.3989C8.54547 10.3989 8.83806 10.4571 9.11104 10.5702C9.38402 10.6833 9.63206 10.849 9.84099 11.0579C10.0499 11.2669 10.2157 11.5149 10.3287 11.7879C10.4418 12.0609 10.5 12.3535 10.5 12.6489C10.5 13.2457 10.2629 13.818 9.84099 14.2399C9.41903 14.6619 8.84674 14.8989 8.25 14.8989C7.65326 14.8989 7.08097 14.6619 6.65901 14.2399C6.23705 13.818 6 13.2457 6 12.6489ZM17.25 10.3989C16.6533 10.3989 16.081 10.636 15.659 11.0579C15.2371 11.4799 15 12.0522 15 12.6489C15 13.2457 15.2371 13.818 15.659 14.2399C16.081 14.6619 16.6533 14.8989 17.25 14.8989C17.8467 14.8989 18.419 14.6619 18.841 14.2399C19.2629 13.818 19.5 13.2457 19.5 12.6489C19.5 12.0522 19.2629 11.4799 18.841 11.0579C18.419 10.636 17.8467 10.3989 17.25 10.3989Z" fill="white"/>
<path d="M0 2.89893C0 2.70001 0.0790176 2.50925 0.21967 2.3686C0.360322 2.22794 0.551088 2.14893 0.75 2.14893H2.25C2.44891 2.14893 2.63968 2.22794 2.78033 2.3686C2.92098 2.50925 3 2.70001 3 2.89893V6.64893H23.25C23.4489 6.64893 23.6397 6.72794 23.7803 6.8686C23.921 7.00925 24 7.20001 24 7.39893V17.8989C24 18.0978 23.921 18.2886 23.7803 18.4293C23.6397 18.5699 23.4489 18.6489 23.25 18.6489H3V22.3989C3 22.5978 2.92098 22.7886 2.78033 22.9293C2.63968 23.0699 2.44891 23.1489 2.25 23.1489C2.05109 23.1489 1.86032 23.0699 1.71967 22.9293C1.57902 22.7886 1.5 22.5978 1.5 22.3989V3.64893H0.75C0.551088 3.64893 0.360322 3.56991 0.21967 3.42926C0.0790176 3.2886 0 3.09784 0 2.89893ZM8.25 8.89893C7.25544 8.89893 6.30161 9.29401 5.59835 9.99728C4.89509 10.7005 4.5 11.6544 4.5 12.6489C4.5 13.6435 4.89509 14.5973 5.59835 15.3006C6.30161 16.0038 7.25544 16.3989 8.25 16.3989C9.24456 16.3989 10.1984 16.0038 10.9017 15.3006C11.6049 14.5973 12 13.6435 12 12.6489C12 11.6544 11.6049 10.7005 10.9017 9.99728C10.1984 9.29401 9.24456 8.89893 8.25 8.89893ZM13.5 12.6489C13.5 13.6435 13.8951 14.5973 14.5983 15.3006C15.3016 16.0038 16.2554 16.3989 17.25 16.3989C18.2446 16.3989 19.1984 16.0038 19.9016 15.3006C20.6049 14.5973 21 13.6435 21 12.6489C21 11.6544 20.6049 10.7005 19.9016 9.99728C19.1984 9.29401 18.2446 8.89893 17.25 8.89893C16.2554 8.89893 15.3016 9.29401 14.5983 9.99728C13.8951 10.7005 13.5 11.6544 13.5 12.6489Z" fill="white"/>
<path d="M4.5 19.3989H9.75V20.8989C9.75 21.0978 9.67098 21.2886 9.53033 21.4293C9.38968 21.5699 9.19891 21.6489 9 21.6489H5.25C5.05109 21.6489 4.86032 21.5699 4.71967 21.4293C4.57902 21.2886 4.5 21.0978 4.5 20.8989V19.3989ZM10.5 20.8989V19.3989H16.5V20.8989C16.5 21.0978 16.421 21.2886 16.2803 21.4293C16.1397 21.5699 15.9489 21.6489 15.75 21.6489H11.25C11.0511 21.6489 10.8603 21.5699 10.7197 21.4293C10.579 21.2886 10.5 21.0978 10.5 20.8989Z" fill="white"/>
</svg>
