<svg width="21" height="22" viewBox="0 0 21 22" fill="none" xmlns="http://www.w3.org/2000/svg">
<path d="M18 6V10H16V7H11V2H2V18H8V20H0.993C0.729813 20 0.477391 19.8955 0.291196 19.7095C0.105001 19.5235 0.000265042 19.2712 0 19.008V0.992C0 0.455 0.449 0 1.002 0H11.997L18 6ZM10.786 13.327C10.825 12.6 11.386 12.008 12.11 11.931L12.98 11.839C13.0837 11.8281 13.1814 11.7847 13.259 11.715L13.91 11.13C14.1723 10.8945 14.5099 10.7601 14.8623 10.7509C15.2147 10.7418 15.5588 10.8584 15.833 11.08L16.515 11.63C16.595 11.695 16.695 11.733 16.799 11.739L17.673 11.786C18.4 11.825 18.992 12.386 19.069 13.11L19.161 13.98C19.1718 14.0838 19.2152 14.1814 19.285 14.259L19.87 14.91C20.357 15.452 20.378 16.267 19.92 16.833L19.37 17.515C19.3048 17.5959 19.2666 17.6952 19.261 17.799L19.214 18.673C19.1953 19.0251 19.0517 19.359 18.8091 19.6148C18.5665 19.8707 18.2406 20.0317 17.89 20.069L17.02 20.161C16.9163 20.1719 16.8186 20.2153 16.741 20.285L16.09 20.87C15.8277 21.1055 15.4901 21.2399 15.1377 21.2491C14.7853 21.2582 14.4412 21.1416 14.167 20.92L13.485 20.37C13.4041 20.3048 13.3048 20.2666 13.201 20.261L12.327 20.214C11.9749 20.1953 11.641 20.0517 11.3852 19.8091C11.1293 19.5665 10.9683 19.2406 10.931 18.89L10.839 18.02C10.8281 17.9163 10.7847 17.8186 10.715 17.741L10.13 17.09C9.89447 16.8277 9.76008 16.4901 9.75092 16.1377C9.74175 15.7853 9.85842 15.4412 10.08 15.167L10.63 14.485C10.6952 14.4041 10.7334 14.3048 10.739 14.201L10.786 13.327ZM18.03 15.03L16.97 13.97L14.5 16.44L13.03 14.97L11.97 16.03L14.5 18.56L18.03 15.03Z" fill="white"/>
</svg>
