<svg width="24" height="24" viewBox="0 0 24 24" fill="none" xmlns="http://www.w3.org/2000/svg">
<path d="M19.379 15.1059C20.0276 13.5643 20.1768 11.8583 19.8057 10.2275C19.4346 8.5967 18.5617 7.12322 17.3099 6.01416C16.058 4.9051 14.4901 4.21621 12.8264 4.04433C11.1628 3.87246 9.48715 4.22623 8.03498 5.05592L7.04198 3.31892C8.55953 2.45139 10.278 1.99697 12.0261 2.001C13.7741 2.00504 15.4905 2.46739 17.004 3.34192C21.494 5.93492 23.214 11.4849 21.122 16.1119L22.464 16.8869L18.298 19.1009L18.133 14.3869L19.379 15.1059ZM4.62898 8.89992C3.98013 10.4416 3.83077 12.1479 4.2019 13.7789C4.57303 15.4099 5.446 16.8835 6.69806 17.9927C7.95012 19.1018 9.51831 19.7907 11.1821 19.9624C12.846 20.1341 14.5218 19.78 15.974 18.9499L16.966 20.6869C15.4483 21.5543 13.7298 22.0086 11.9818 22.0043C10.2338 22.0001 8.51742 21.5376 7.00398 20.6629C2.51398 18.0699 0.793983 12.5209 2.88698 7.89292L1.54498 7.11992L5.70998 4.90492L5.87498 9.61893L4.62898 8.89992ZM13.419 14.8309L10.59 12.0029L7.76198 14.8309L6.34698 13.4169L10.59 9.17392L13.418 12.0029L16.247 9.17392L17.661 10.5889L13.419 14.8309Z" fill="white"/>
</svg>
