<svg width="21" height="21" viewBox="0 0 21 21" fill="none" xmlns="http://www.w3.org/2000/svg">
<path d="M12.79 9.62012L1.49998 20.9001L0.0999756 19.5001L11.38 8.21012L12.79 9.62012ZM17.27 6.73012L17.86 6.14012L17.07 5.35012L17.71 4.71012L16.29 3.29012L15.65 3.93012L14.86 3.14012L14.27 3.73012C12.53 2.31012 10.57 1.17012 8.46998 0.370117L7.63998 2.16012C9.38998 3.08012 11 4.19012 12.5 5.50012L12 6.00012L15 9.00012L15.5 8.50012C16.81 10.0001 17.92 11.6101 18.84 13.3601L20.63 12.5301C19.83 10.4301 18.69 8.47012 17.27 6.73012Z" fill="white"/>
</svg>
