<svg width="25" height="25" viewBox="0 0 25 25" fill="none" xmlns="http://www.w3.org/2000/svg">
<g clip-path="url(#clip0_2007_1330)">
<path d="M6.17529 12.8633C6.17529 12.5678 6.23349 12.2752 6.34656 12.0022C6.45964 11.7293 6.62537 11.4812 6.8343 11.2723C7.04323 11.0634 7.29127 10.8976 7.56426 10.7846C7.83724 10.6715 8.12982 10.6133 8.42529 10.6133C8.72077 10.6133 9.01335 10.6715 9.28633 10.7846C9.55931 10.8976 9.80735 11.0634 10.0163 11.2723C10.2252 11.4812 10.3909 11.7293 10.504 12.0022C10.6171 12.2752 10.6753 12.5678 10.6753 12.8633C10.6753 13.46 10.4382 14.0323 10.0163 14.4543C9.59433 14.8762 9.02203 15.1133 8.42529 15.1133C7.82856 15.1133 7.25626 14.8762 6.8343 14.4543C6.41235 14.0323 6.17529 13.46 6.17529 12.8633ZM17.4253 10.6133C16.8286 10.6133 16.2563 10.8503 15.8343 11.2723C15.4123 11.6942 15.1753 12.2665 15.1753 12.8633C15.1753 13.46 15.4123 14.0323 15.8343 14.4543C16.2563 14.8762 16.8286 15.1133 17.4253 15.1133C18.022 15.1133 18.5943 14.8762 19.0163 14.4543C19.4382 14.0323 19.6753 13.46 19.6753 12.8633C19.6753 12.2665 19.4382 11.6942 19.0163 11.2723C18.5943 10.8503 18.022 10.6133 17.4253 10.6133Z" fill="white"/>
<path d="M0.175293 3.11328C0.175293 2.91437 0.254311 2.7236 0.394963 2.58295C0.535615 2.4423 0.726381 2.36328 0.925293 2.36328H2.42529C2.62421 2.36328 2.81497 2.4423 2.95562 2.58295C3.09628 2.7236 3.17529 2.91437 3.17529 3.11328V6.86328H23.4253C23.6242 6.86328 23.815 6.9423 23.9556 7.08295C24.0963 7.2236 24.1753 7.41437 24.1753 7.61328V18.1133C24.1753 18.3122 24.0963 18.503 23.9556 18.6436C23.815 18.7843 23.6242 18.8633 23.4253 18.8633H3.17529V22.6133C3.17529 22.8122 3.09628 23.003 2.95562 23.1436C2.81497 23.2843 2.62421 23.3633 2.42529 23.3633C2.22638 23.3633 2.03562 23.2843 1.89496 23.1436C1.75431 23.003 1.67529 22.8122 1.67529 22.6133V3.86328H0.925293C0.726381 3.86328 0.535615 3.78426 0.394963 3.64361C0.254311 3.50296 0.175293 3.31219 0.175293 3.11328ZM8.42529 9.11328C7.43073 9.11328 6.4769 9.50837 5.77364 10.2116C5.07038 10.9149 4.67529 11.8687 4.67529 12.8633C4.67529 13.8578 5.07038 14.8117 5.77364 15.5149C6.4769 16.2182 7.43073 16.6133 8.42529 16.6133C9.41986 16.6133 10.3737 16.2182 11.0769 15.5149C11.7802 14.8117 12.1753 13.8578 12.1753 12.8633C12.1753 11.8687 11.7802 10.9149 11.0769 10.2116C10.3737 9.50837 9.41986 9.11328 8.42529 9.11328ZM13.6753 12.8633C13.6753 13.8578 14.0704 14.8117 14.7736 15.5149C15.4769 16.2182 16.4307 16.6133 17.4253 16.6133C18.4199 16.6133 19.3737 16.2182 20.0769 15.5149C20.7802 14.8117 21.1753 13.8578 21.1753 12.8633C21.1753 11.8687 20.7802 10.9149 20.0769 10.2116C19.3737 9.50837 18.4199 9.11328 17.4253 9.11328C16.4307 9.11328 15.4769 9.50837 14.7736 10.2116C14.0704 10.9149 13.6753 11.8687 13.6753 12.8633Z" fill="white"/>
<path d="M4.67529 19.6133H9.92529V21.1133C9.92529 21.3122 9.84628 21.503 9.70562 21.6436C9.56497 21.7843 9.37421 21.8633 9.17529 21.8633H5.42529C5.22638 21.8633 5.03562 21.7843 4.89496 21.6436C4.75431 21.503 4.67529 21.3122 4.67529 21.1133V19.6133ZM10.6753 21.1133V19.6133H16.6753V21.1133C16.6753 21.3122 16.5963 21.503 16.4556 21.6436C16.315 21.7843 16.1242 21.8633 15.9253 21.8633H11.4253C11.2264 21.8633 11.0356 21.7843 10.895 21.6436C10.7543 21.503 10.6753 21.3122 10.6753 21.1133Z" fill="white"/>
</g>
<defs>
<clipPath id="clip0_2007_1330">
<rect width="24" height="24" fill="white" transform="translate(0.175293 0.863281)"/>
</clipPath>
</defs>
</svg>
