<svg width="112" height="108" viewBox="0 0 112 108" fill="none" xmlns="http://www.w3.org/2000/svg">
<g filter="url(#filter0_d_28_2812)">
<path d="M86.7458 66.9418C89.4484 60.5186 90.0702 53.4099 88.5238 46.615C86.9774 39.8201 83.3406 33.6806 78.1245 29.0595C72.9084 24.4384 66.3753 21.568 59.4435 20.8519C52.5118 20.1357 45.5299 21.6098 39.4792 25.0668L35.3417 17.8293C41.6648 14.2146 48.8252 12.3212 56.1086 12.338C63.392 12.3548 70.5437 14.2813 76.85 17.9252C95.5583 28.7293 102.725 51.8543 94.0083 71.1335L99.6 74.3627L82.2417 83.5877L81.5542 63.946L86.7458 66.9418ZM25.2875 41.0835C22.5839 47.5072 21.9616 54.6168 23.508 61.4125C25.0544 68.2083 28.6917 74.3485 33.9086 78.97C39.1256 83.5914 45.6597 86.4616 52.5924 87.177C59.525 87.8924 66.5076 86.4171 72.5583 82.9585L76.6917 90.196C70.3682 93.8101 63.2075 95.7028 55.9242 95.6853C48.6408 95.6677 41.4893 93.7405 35.1833 90.096C16.475 79.2918 9.30833 56.171 18.0292 36.8877L12.4375 33.6668L29.7917 24.4377L30.4792 44.0793L25.2875 41.0835ZM61.9125 65.796L50.125 54.0127L38.3417 65.796L32.4458 59.9043L50.125 42.2252L61.9083 54.0127L73.6958 42.2252L79.5875 48.121L61.9125 65.796Z" fill="#10C237"/>
</g>
<defs>
<filter id="filter0_d_28_2812" x="-6.3" y="-8.3" width="124.6" height="124.6" filterUnits="userSpaceOnUse" color-interpolation-filters="sRGB">
<feFlood flood-opacity="0" result="BackgroundImageFix"/>
<feColorMatrix in="SourceAlpha" type="matrix" values="0 0 0 0 0 0 0 0 0 0 0 0 0 0 0 0 0 0 127 0" result="hardAlpha"/>
<feOffset/>
<feGaussianBlur stdDeviation="6.15"/>
<feComposite in2="hardAlpha" operator="out"/>
<feColorMatrix type="matrix" values="0 0 0 0 0.0416667 0 0 0 0 1 0 0 0 0 0.2525 0 0 0 0.41 0"/>
<feBlend mode="normal" in2="BackgroundImageFix" result="effect1_dropShadow_28_2812"/>
<feBlend mode="normal" in="SourceGraphic" in2="effect1_dropShadow_28_2812" result="shape"/>
</filter>
</defs>
</svg>
