<svg width="111" height="111" viewBox="0 0 111 111" fill="none" xmlns="http://www.w3.org/2000/svg">
<g filter="url(#filter0_d_28_2824)">
<path d="M65.625 51.2502L18.5833 98.2502L12.75 92.4168L59.75 45.3752L65.625 51.2502ZM84.2917 39.2085L86.75 36.7502L83.4583 33.4585L86.125 30.7918L80.2083 24.8752L77.5417 27.5418L74.25 24.2502L71.7917 26.7085C64.5417 20.7918 56.375 16.0418 47.625 12.7085L44.1667 20.1668C51.4583 24.0002 58.1667 28.6252 64.4167 34.0835L62.3333 36.1668L74.8333 48.6668L76.9167 46.5835C82.375 52.8335 87 59.5418 90.8333 66.8335L98.2917 63.3752C94.9583 54.6252 90.2083 46.4585 84.2917 39.2085Z" fill="#10C237"/>
</g>
<defs>
<filter id="filter0_d_28_2824" x="-8.3" y="-5.3" width="124.6" height="124.6" filterUnits="userSpaceOnUse" color-interpolation-filters="sRGB">
<feFlood flood-opacity="0" result="BackgroundImageFix"/>
<feColorMatrix in="SourceAlpha" type="matrix" values="0 0 0 0 0 0 0 0 0 0 0 0 0 0 0 0 0 0 127 0" result="hardAlpha"/>
<feOffset/>
<feGaussianBlur stdDeviation="6.15"/>
<feComposite in2="hardAlpha" operator="out"/>
<feColorMatrix type="matrix" values="0 0 0 0 0.0416667 0 0 0 0 1 0 0 0 0 0.2525 0 0 0 0.41 0"/>
<feBlend mode="normal" in2="BackgroundImageFix" result="effect1_dropShadow_28_2824"/>
<feBlend mode="normal" in="SourceGraphic" in2="effect1_dropShadow_28_2824" result="shape"/>
</filter>
</defs>
</svg>
