<svg width="110" height="114" viewBox="0 0 110 114" fill="none" xmlns="http://www.w3.org/2000/svg">
<g filter="url(#filter0_d_28_2805)">
<path d="M87.5 37.3335V54.0002H79.1667V41.5002H58.3333V20.6668H20.8333V87.3335H45.8333V95.6668H16.6375C15.5409 95.6668 14.4891 95.2315 13.7133 94.4565C12.9375 93.6814 12.5011 92.6301 12.5 91.5335V16.4668C12.5 14.2293 14.3708 12.3335 16.675 12.3335H62.4875L87.5 37.3335ZM57.4417 67.8627C57.6042 64.8335 59.9417 62.3668 62.9583 62.046L66.5833 61.6627C67.0156 61.6172 67.4225 61.4364 67.7458 61.146L70.4583 58.7085C71.5512 57.7271 72.9579 57.1672 74.4262 57.129C75.8945 57.0908 77.3284 57.5769 78.4708 58.5002L81.3125 60.7918C81.6458 61.0627 82.0625 61.221 82.4958 61.246L86.1375 61.4418C89.1667 61.6043 91.6333 63.9418 91.9542 66.9585L92.3375 70.5835C92.3826 71.0158 92.5635 71.4228 92.8542 71.746L95.2917 74.4585C97.3208 76.7168 97.4083 80.1127 95.5 82.471L93.2083 85.3127C92.9365 85.6497 92.7776 86.0637 92.7542 86.496L92.5583 90.1377C92.4804 91.6047 91.8823 92.9961 90.8713 94.062C89.8603 95.128 88.5026 95.7989 87.0417 95.9543L83.4167 96.3377C82.9844 96.3831 82.5775 96.5639 82.2542 96.8543L79.5417 99.2918C78.4488 100.273 77.0421 100.833 75.5738 100.871C74.1055 100.91 72.6715 100.423 71.5292 99.5002L68.6875 97.2085C68.3505 96.9367 67.9365 96.7778 67.5042 96.7543L63.8625 96.5585C62.3954 96.4806 61.0041 95.8824 59.9381 94.8714C58.8722 93.8605 58.2013 92.5027 58.0458 91.0418L57.6625 87.4168C57.6171 86.9846 57.4362 86.5777 57.1458 86.2543L54.7083 83.5418C53.727 82.449 53.167 81.0423 53.1288 79.5739C53.0906 78.1056 53.5768 76.6717 54.5 75.5293L56.7917 72.6877C57.0635 72.3507 57.2224 71.9367 57.2458 71.5043L57.4417 67.8627ZM87.625 74.9585L83.2083 70.5418L72.9167 80.8335L66.7917 74.7085L62.375 79.1252L72.9167 89.6668L87.625 74.9585Z" fill="#10C237"/>
</g>
<defs>
<filter id="filter0_d_28_2805" x="-12.3" y="-8.3" width="124.6" height="124.6" filterUnits="userSpaceOnUse" color-interpolation-filters="sRGB">
<feFlood flood-opacity="0" result="BackgroundImageFix"/>
<feColorMatrix in="SourceAlpha" type="matrix" values="0 0 0 0 0 0 0 0 0 0 0 0 0 0 0 0 0 0 127 0" result="hardAlpha"/>
<feOffset/>
<feGaussianBlur stdDeviation="6.15"/>
<feComposite in2="hardAlpha" operator="out"/>
<feColorMatrix type="matrix" values="0 0 0 0 0.0416667 0 0 0 0 1 0 0 0 0 0.2525 0 0 0 0.41 0"/>
<feBlend mode="normal" in2="BackgroundImageFix" result="effect1_dropShadow_28_2805"/>
<feBlend mode="normal" in="SourceGraphic" in2="effect1_dropShadow_28_2805" result="shape"/>
</filter>
</defs>
</svg>
