<svg width="80" height="91" viewBox="0 0 80 91" fill="none" xmlns="http://www.w3.org/2000/svg">
<g filter="url(#filter0_d_4_227)">
<path fill-rule="evenodd" clip-rule="evenodd" d="M39.8066 7.80762L72.6132 26.7485V35.6051L39.8066 54.546L7 35.6051V26.7485L39.8066 7.80762ZM39.8065 61.793L72.6132 42.852V50.175L39.8066 69.1159L7 50.175V42.8522L39.8065 61.793ZM7 57.4222V64.6303L39.8066 83.5713L72.6132 64.6303V57.422L39.8065 76.363L7 57.4222Z" fill="#10C237"/>
<path fill-rule="evenodd" clip-rule="evenodd" d="M39.8066 45.6894L72.6132 26.7485L39.8066 7.80762L7 26.7485V26.7485L39.8066 45.6894Z" fill="#00FF38"/>
<path d="M35.5641 40.6066L20.5467 26.303L25.7251 23.3133L50.5542 31.9521L46.3842 34.3596L40.9333 32.314L36.191 35.052L39.7341 38.1991L35.5641 40.6066ZM33.6018 32.7703L36.9541 30.8348L31.2033 28.6161C30.3857 28.2909 29.5681 27.9762 28.7504 27.672C27.9328 27.3468 27.2968 27.095 26.8426 26.9167C27.1515 27.179 27.5785 27.5409 28.1236 28.0025C28.6868 28.4535 29.241 28.9204 29.7861 29.4029L33.6018 32.7703ZM51.4975 31.4075L47.8181 29.2832L51.77 27.0015L39.2328 19.7632L35.2809 22.0448L31.6015 19.9205L43.5936 12.9969L47.273 15.1212L43.3211 17.4029L55.8582 24.6412L59.8102 22.3595L63.4896 24.4838L51.4975 31.4075Z" fill="#132E19"/>
</g>
<defs>
<filter id="filter0_d_4_227" x="0.0647135" y="0.872331" width="79.4839" height="89.6342" filterUnits="userSpaceOnUse" color-interpolation-filters="sRGB">
<feFlood flood-opacity="0" result="BackgroundImageFix"/>
<feColorMatrix in="SourceAlpha" type="matrix" values="0 0 0 0 0 0 0 0 0 0 0 0 0 0 0 0 0 0 127 0" result="hardAlpha"/>
<feOffset/>
<feGaussianBlur stdDeviation="3.46764"/>
<feComposite in2="hardAlpha" operator="out"/>
<feColorMatrix type="matrix" values="0 0 0 0 0.0416667 0 0 0 0 1 0 0 0 0 0.2525 0 0 0 0.41 0"/>
<feBlend mode="normal" in2="BackgroundImageFix" result="effect1_dropShadow_4_227"/>
<feBlend mode="normal" in="SourceGraphic" in2="effect1_dropShadow_4_227" result="shape"/>
</filter>
</defs>
</svg>
