<svg width="70" height="65" viewBox="0 0 70 65" fill="none" xmlns="http://www.w3.org/2000/svg">
<g filter="url(#filter0_d_28_2294)">
<path d="M27 32.6008C27 32.2069 27.0819 31.8168 27.241 31.4528C27.4002 31.0888 27.6334 30.7581 27.9275 30.4795C28.2215 30.2009 28.5706 29.98 28.9548 29.8292C29.339 29.6784 29.7508 29.6008 30.1667 29.6008C30.5825 29.6008 30.9943 29.6784 31.3785 29.8292C31.7627 29.98 32.1118 30.2009 32.4058 30.4795C32.6999 30.7581 32.9331 31.0888 33.0923 31.4528C33.2514 31.8168 33.3333 32.2069 33.3333 32.6008C33.3333 33.3965 32.9997 34.1595 32.4058 34.7222C31.812 35.2848 31.0065 35.6008 30.1667 35.6008C29.3268 35.6008 28.5214 35.2848 27.9275 34.7222C27.3336 34.1595 27 33.3965 27 32.6008ZM42.8333 29.6008C41.9935 29.6008 41.188 29.9169 40.5942 30.4795C40.0003 31.0421 39.6667 31.8052 39.6667 32.6008C39.6667 33.3965 40.0003 34.1595 40.5942 34.7222C41.188 35.2848 41.9935 35.6008 42.8333 35.6008C43.6732 35.6008 44.4786 35.2848 45.0725 34.7222C45.6664 34.1595 46 33.3965 46 32.6008C46 31.8052 45.6664 31.0421 45.0725 30.4795C44.4786 29.9169 43.6732 29.6008 42.8333 29.6008Z" fill="#10C237"/>
<path d="M18 18.6723C18 18.3881 18.1119 18.1156 18.3112 17.9146C18.5105 17.7137 18.7807 17.6008 19.0625 17.6008H21.1875C21.4693 17.6008 21.7395 17.7137 21.9388 17.9146C22.1381 18.1156 22.25 18.3881 22.25 18.6723V24.0294H50.9375C51.2193 24.0294 51.4895 24.1423 51.6888 24.3432C51.8881 24.5441 52 24.8167 52 25.1008V40.1008C52 40.385 51.8881 40.6575 51.6888 40.8584C51.4895 41.0594 51.2193 41.1723 50.9375 41.1723H22.25V46.5294C22.25 46.8136 22.1381 47.0861 21.9388 47.287C21.7395 47.4879 21.4693 47.6008 21.1875 47.6008C20.9057 47.6008 20.6355 47.4879 20.4362 47.287C20.2369 47.0861 20.125 46.8136 20.125 46.5294V19.7437H19.0625C18.7807 19.7437 18.5105 19.6308 18.3112 19.4299C18.1119 19.2289 18 18.9564 18 18.6723ZM29.6875 27.2437C28.2785 27.2437 26.9273 27.8081 25.931 28.8128C24.9347 29.8174 24.375 31.18 24.375 32.6008C24.375 34.0216 24.9347 35.3842 25.931 36.3889C26.9273 37.3936 28.2785 37.958 29.6875 37.958C31.0965 37.958 32.4477 37.3936 33.444 36.3889C34.4403 35.3842 35 34.0216 35 32.6008C35 31.18 34.4403 29.8174 33.444 28.8128C32.4477 27.8081 31.0965 27.2437 29.6875 27.2437ZM37.125 32.6008C37.125 34.0216 37.6847 35.3842 38.681 36.3889C39.6773 37.3936 41.0285 37.958 42.4375 37.958C43.8465 37.958 45.1977 37.3936 46.194 36.3889C47.1903 35.3842 47.75 34.0216 47.75 32.6008C47.75 31.18 47.1903 29.8174 46.194 28.8128C45.1977 27.8081 43.8465 27.2437 42.4375 27.2437C41.0285 27.2437 39.6773 27.8081 38.681 28.8128C37.6847 29.8174 37.125 31.18 37.125 32.6008Z" fill="#10C237"/>
<path d="M24 42.6008H31.4375V44.6008C31.4375 44.866 31.3256 45.1204 31.1263 45.3079C30.927 45.4955 30.6568 45.6008 30.375 45.6008H25.0625C24.7807 45.6008 24.5105 45.4955 24.3112 45.3079C24.1119 45.1204 24 44.866 24 44.6008V42.6008ZM32.5 44.6008V42.6008H41V44.6008C41 44.866 40.8881 45.1204 40.6888 45.3079C40.4895 45.4955 40.2193 45.6008 39.9375 45.6008H33.5625C33.2807 45.6008 33.0105 45.4955 32.8112 45.3079C32.6119 45.1204 32.5 44.866 32.5 44.6008Z" fill="#10C237"/>
</g>
<defs>
<filter id="filter0_d_28_2294" x="-2.4" y="-4.79917" width="74.8" height="74.8" filterUnits="userSpaceOnUse" color-interpolation-filters="sRGB">
<feFlood flood-opacity="0" result="BackgroundImageFix"/>
<feColorMatrix in="SourceAlpha" type="matrix" values="0 0 0 0 0 0 0 0 0 0 0 0 0 0 0 0 0 0 127 0" result="hardAlpha"/>
<feOffset/>
<feGaussianBlur stdDeviation="8.7"/>
<feComposite in2="hardAlpha" operator="out"/>
<feColorMatrix type="matrix" values="0 0 0 0 0.0635417 0 0 0 0 0.7625 0 0 0 0 0.217313 0 0 0 1 0"/>
<feBlend mode="normal" in2="BackgroundImageFix" result="effect1_dropShadow_28_2294"/>
<feBlend mode="normal" in="SourceGraphic" in2="effect1_dropShadow_28_2294" result="shape"/>
</filter>
</defs>
</svg>
