<svg width="240" height="117" viewBox="0 0 240 117" fill="none" xmlns="http://www.w3.org/2000/svg">
<g clip-path="url(#clip0_2007_1152)">
<rect y="0.00244141" width="240" height="117" rx="8" fill="#14170E"/>
<path opacity="0.5" d="M3.65635 119.752L1.20635 100.152C-0.120731 99.642 -1.37024 99.0295 -2.54215 98.3149C-3.71407 97.6004 -4.86353 96.8347 -5.99052 96.0181L-24.2124 103.674L-41.0562 74.5806L-25.2843 62.6368C-25.3864 61.9222 -25.4374 61.2342 -25.4374 60.5727V56.4383C-25.4374 55.7727 -25.3864 55.0826 -25.2843 54.3681L-41.0562 42.4243L-24.2124 13.3306L-5.99052 20.9868C-4.86761 20.1701 -3.69365 19.4045 -2.46865 18.6899C-1.24365 17.9754 -0.0186501 17.3629 1.20635 16.8524L3.65635 -2.74756H37.3438L39.7938 16.8524C41.1209 17.3629 42.3725 17.9754 43.5485 18.6899C44.7245 19.4045 45.8719 20.1701 46.9907 20.9868L65.2126 13.3306L82.0563 42.4243L66.2845 54.3681C66.3866 55.0826 66.4376 55.7727 66.4376 56.4383V60.5666C66.4376 61.2321 66.3355 61.9222 66.1313 62.6368L81.9032 74.5806L65.0595 103.674L46.9907 96.0181C45.8678 96.8347 44.6938 97.6004 43.4688 98.3149C42.2439 99.0295 41.0188 99.642 39.7938 100.152L37.3438 119.752H3.65635ZM20.8064 79.9399C26.7272 79.9399 31.7803 77.8472 35.9657 73.6618C40.1511 69.4764 42.2439 64.4233 42.2439 58.5024C42.2439 52.5816 40.1511 47.5285 35.9657 43.3431C31.7803 39.1576 26.7272 37.0649 20.8064 37.0649C14.7834 37.0649 9.70377 39.1576 5.56735 43.3431C1.43093 47.5285 -0.635235 52.5816 -0.631149 58.5024C-0.631149 64.4233 1.43705 69.4764 5.57347 73.6618C9.70989 77.8472 14.7875 79.9399 20.8064 79.9399Z" fill="white" fill-opacity="0.12"/>
<path d="M34.935 34.0024H31.687L30.411 30.3194H23.828L22.552 34.0024H19.304L25.365 16.6604H28.903L34.935 34.0024ZM29.454 27.4194L27.134 20.5754L24.785 27.4194H29.454ZM40.237 34.0024H37.192V16.6604H40.237V34.0024Z" fill="#10C237"/>
<path d="M29.338 100.002H26.293V85.5894H22.842V82.6604H29.338V100.002Z" fill="#10C237"/>
<g filter="url(#filter0_f_2007_1152)">
<ellipse cx="-90" cy="59.0024" rx="118" ry="94" fill="#10C237"/>
</g>
<g filter="url(#filter1_d_2007_1152)">
<path fill-rule="evenodd" clip-rule="evenodd" d="M266.539 81.501L184.27 34.0024L102 81.501V103.71L184.27 151.209L266.539 103.711V81.501Z" fill="#10C237"/>
<path fill-rule="evenodd" clip-rule="evenodd" d="M266.54 81.5005L184.271 128.999L102.001 81.5005L184.271 34.0024L266.54 81.5005Z" fill="#00FF38"/>
</g>
<path d="M175.499 118.154L137.839 82.2842L150.825 74.7867L213.09 96.4504L202.632 102.488L188.963 97.358L177.071 104.224L185.956 112.116L175.499 118.154ZM170.578 98.5024L178.984 93.6488L164.563 88.0848C162.513 87.2693 160.462 86.4801 158.412 85.7172C156.361 84.9017 154.767 84.2703 153.627 83.8231C154.402 84.4808 155.473 85.3884 156.84 86.5459C158.252 87.6771 159.642 88.8477 161.009 90.0579L170.578 98.5024ZM215.455 95.0847L206.228 89.7576L216.138 84.0358L184.699 65.8841L174.788 71.6058L165.561 66.2787L195.634 48.9161L204.861 54.2433L194.951 59.965L226.391 78.1168L236.301 72.395L245.528 77.7222L215.455 95.0847Z" fill="#132E19"/>
</g>
<rect x="1.5" y="1.50244" width="237" height="114" rx="6.5" stroke="#10C237" stroke-width="3"/>
<defs>
<filter id="filter0_f_2007_1152" x="-279.1" y="-106.098" width="378.2" height="330.2" filterUnits="userSpaceOnUse" color-interpolation-filters="sRGB">
<feFlood flood-opacity="0" result="BackgroundImageFix"/>
<feBlend mode="normal" in="SourceGraphic" in2="BackgroundImageFix" result="shape"/>
<feGaussianBlur stdDeviation="35.55" result="effect1_foregroundBlur_2007_1152"/>
</filter>
<filter id="filter1_d_2007_1152" x="84.6077" y="16.6107" width="199.324" height="151.99" filterUnits="userSpaceOnUse" color-interpolation-filters="sRGB">
<feFlood flood-opacity="0" result="BackgroundImageFix"/>
<feColorMatrix in="SourceAlpha" type="matrix" values="0 0 0 0 0 0 0 0 0 0 0 0 0 0 0 0 0 0 127 0" result="hardAlpha"/>
<feOffset/>
<feGaussianBlur stdDeviation="8.69589"/>
<feComposite in2="hardAlpha" operator="out"/>
<feColorMatrix type="matrix" values="0 0 0 0 0.0416667 0 0 0 0 1 0 0 0 0 0.2525 0 0 0 0.41 0"/>
<feBlend mode="normal" in2="BackgroundImageFix" result="effect1_dropShadow_2007_1152"/>
<feBlend mode="normal" in="SourceGraphic" in2="effect1_dropShadow_2007_1152" result="shape"/>
</filter>
<clipPath id="clip0_2007_1152">
<rect y="0.00244141" width="240" height="117" rx="8" fill="white"/>
</clipPath>
</defs>
</svg>
