<svg width="70" height="69" viewBox="0 0 70 69" fill="none" xmlns="http://www.w3.org/2000/svg">
<g filter="url(#filter0_d_28_2301)">
<path d="M49.9999 32.2917V27.3334C49.9999 26.4493 49.6487 25.6015 49.0236 24.9764C48.3985 24.3512 47.5506 24 46.6666 24H36.6666V21.8134C37.1749 21.3567 37.4999 20.7 37.4999 19.9634C37.4999 19.3003 37.2365 18.6645 36.7677 18.1956C36.2988 17.7268 35.663 17.4634 34.9999 17.4634C34.3369 17.4634 33.701 17.7268 33.2322 18.1956C32.7633 18.6645 32.4999 19.3003 32.4999 19.9634C32.4999 20.7 32.8249 21.3567 33.3333 21.8134V24H23.3333C22.4492 24 21.6014 24.3512 20.9762 24.9764C20.3511 25.6015 19.9999 26.4493 19.9999 27.3334V32.33L19.8799 32.3384C19.4597 32.3683 19.0665 32.5564 18.7795 32.8648C18.4925 33.1731 18.333 33.5788 18.3333 34V37.3334C18.3333 37.7754 18.5088 38.1993 18.8214 38.5119C19.134 38.8244 19.5579 39 19.9999 39V47.3334C19.9999 48.2174 20.3511 49.0653 20.9762 49.6904C21.6014 50.3155 22.4492 50.6667 23.3333 50.6667H46.6666C47.5506 50.6667 48.3985 50.3155 49.0236 49.6904C49.6487 49.0653 49.9999 48.2174 49.9999 47.3334V39C50.4419 39 50.8659 38.8244 51.1784 38.5119C51.491 38.1993 51.6666 37.7754 51.6666 37.3334V34.1034C51.6859 33.8447 51.6448 33.5851 51.5466 33.345C51.2099 32.5317 50.4883 32.3367 49.9999 32.2917ZM26.6666 34C26.6666 32.16 27.7866 30.6667 29.1666 30.6667C30.5466 30.6667 31.6666 32.16 31.6666 34C31.6666 35.84 30.5466 37.3334 29.1666 37.3334C27.7866 37.3334 26.6666 35.84 26.6666 34ZM41.6633 44C39.9949 43.995 28.3333 44 28.3333 44V40.6667C28.3333 40.6667 40.0016 40.6634 41.6699 40.6667L41.6633 44ZM40.8333 37.3334C39.4533 37.3334 38.3333 35.84 38.3333 34C38.3333 32.16 39.4533 30.6667 40.8333 30.6667C42.2133 30.6667 43.3333 32.16 43.3333 34C43.3333 35.84 42.2133 37.3334 40.8333 37.3334Z" fill="#10C237"/>
</g>
<defs>
<filter id="filter0_d_28_2301" x="-2.4" y="-3.4" width="74.8" height="74.8" filterUnits="userSpaceOnUse" color-interpolation-filters="sRGB">
<feFlood flood-opacity="0" result="BackgroundImageFix"/>
<feColorMatrix in="SourceAlpha" type="matrix" values="0 0 0 0 0 0 0 0 0 0 0 0 0 0 0 0 0 0 127 0" result="hardAlpha"/>
<feOffset/>
<feGaussianBlur stdDeviation="8.7"/>
<feComposite in2="hardAlpha" operator="out"/>
<feColorMatrix type="matrix" values="0 0 0 0 0.0635417 0 0 0 0 0.7625 0 0 0 0 0.217313 0 0 0 1 0"/>
<feBlend mode="normal" in2="BackgroundImageFix" result="effect1_dropShadow_28_2301"/>
<feBlend mode="normal" in="SourceGraphic" in2="effect1_dropShadow_28_2301" result="shape"/>
</filter>
</defs>
</svg>
