<svg width="40" height="40" viewBox="0 0 40 40" fill="none" xmlns="http://www.w3.org/2000/svg">
<circle cx="20" cy="20" r="19" stroke="white" stroke-width="2"/>
<path d="M27.7097 11.6545C27.7097 11.6545 29.6523 10.897 29.4904 12.7366C29.4365 13.4942 28.9508 16.1454 28.5731 19.0131L27.278 27.508C27.278 27.508 27.1701 28.7524 26.1987 28.9689C25.2274 29.1853 23.7704 28.2114 23.5006 27.9949C23.2847 27.8326 19.4534 25.3978 18.1043 24.2074C17.7266 23.8828 17.2949 23.2335 18.1583 22.476L23.8244 17.0653C24.4719 16.416 25.1195 14.9009 22.4213 16.7406L14.8666 21.8808C14.8666 21.8808 14.0032 22.4219 12.3843 21.9349L8.87671 20.8528C8.87671 20.8528 7.58161 20.0412 9.79408 19.2295C15.1904 16.6865 21.8278 14.0893 27.7097 11.6545Z" fill="white"/>
</svg>
